<svg width="15" height="14" viewBox="0 0 15 14" fill="none" xmlns="http://www.w3.org/2000/svg">
<path d="M0 1.62922V9.0776C0 9.97708 0.734238 10.7068 1.64072 10.7068H9.03235L11.6298 13.4998V10.7066H13.3593C14.2653 10.7066 15 9.97683 15 9.07735V1.62922C14.9998 0.729488 14.2653 0 13.3593 0H1.64072C0.734238 0 0 0.729488 0 1.62922ZM10.4483 5.35316C10.4483 4.77492 10.9203 4.30593 11.5031 4.30593C12.0858 4.30593 12.5578 4.77492 12.5578 5.35316C12.5578 5.9319 12.0858 6.40064 11.5031 6.40064C10.9203 6.40064 10.4483 5.93215 10.4483 5.35316ZM6.44514 5.35316C6.44514 4.77492 6.91763 4.30593 7.49988 4.30593C8.08212 4.30593 8.55461 4.77492 8.55461 5.35316C8.55461 5.9319 8.08212 6.40064 7.49988 6.40064C6.91763 6.40064 6.44514 5.93215 6.44514 5.35316ZM2.44221 5.35316C2.44221 4.77492 2.9147 4.30593 3.49694 4.30593C4.07968 4.30593 4.55167 4.77492 4.55167 5.35316C4.55167 5.9319 4.07968 6.40064 3.49694 6.40064C2.91445 6.40089 2.44221 5.93215 2.44221 5.35316Z" fill="#DDDDDD"/>
</svg>
