<svg width="65" height="65" viewBox="0 0 65 65" fill="none" xmlns="http://www.w3.org/2000/svg">
<rect width="65" height="65" fill="#FE663F"/>
<path d="M14.3342 27.2207C14.4663 27.2207 14.5852 27.2207 14.7173 27.2207C17.9799 27.2207 17.9799 27.2207 18.746 30.3356C20.3707 36.986 26.9091 41.4416 34.3458 40.9684C41.2012 40.5347 46.9603 35.238 47.6736 28.6007C47.7792 27.5887 48.0302 27.1418 49.1398 27.2075C50.8701 27.2995 52.6137 27.3258 54.3309 27.1944C55.7178 27.0892 55.9423 27.7201 55.8367 28.8636C55.0838 36.7758 51.055 42.5982 44.0939 46.3308C30.3831 53.691 13.5285 45.884 10.5036 30.8745C9.79035 27.2207 9.79034 27.2207 14.3342 27.2207Z" fill="white"/>
<path d="M31.0834 20.1496C31.0834 24.8154 31.0834 24.7497 26.4339 24.8417C24.7695 24.8812 24.3072 24.5 24.2808 22.752C24.2676 20.6096 24.3469 18.5593 24.3072 16.4695C24.294 15.5758 24.6242 15.2341 25.5224 15.2472C25.7074 15.2472 25.9055 15.2472 26.1036 15.2472C31.0834 15.1815 31.0834 15.1815 31.0834 20.1496Z" fill="white"/>
<path d="M41.1091 21.2274C41.1091 24.6183 41.1091 24.6183 37.6748 24.6183C34.3594 24.6183 34.3594 24.6183 34.3594 21.2799C34.3594 17.5999 34.3594 17.5999 38.0975 17.5999C41.1091 17.5999 41.1091 17.5999 41.1091 21.2274Z" fill="white"/>
</svg>
