<?xml version="1.0" encoding="UTF-8"?>
<svg xmlns="http://www.w3.org/2000/svg" version="1.1" xmlns:xlink="http://www.w3.org/1999/xlink" viewBox="0 0 990 100">
  <defs>
    <style>
      .cls-1 {
        fill: url(#linear-gradient-2);
      }

      .cls-2 {
        stroke: #5d8c5f;
      }

      .cls-2, .cls-3, .cls-4, .cls-5, .cls-6, .cls-7, .cls-8, .cls-9, .cls-10, .cls-11, .cls-12, .cls-13 {
        stroke-miterlimit: 10;
      }

      .cls-2, .cls-3, .cls-4, .cls-5, .cls-7, .cls-8, .cls-9, .cls-10, .cls-11, .cls-12 {
        fill: none;
      }

      .cls-2, .cls-3, .cls-4, .cls-5, .cls-7, .cls-8, .cls-9, .cls-10, .cls-11, .cls-12, .cls-13 {
        stroke-linecap: round;
      }

      .cls-3 {
        stroke: #c7b0a8;
      }

      .cls-4 {
        stroke: #9b5b94;
      }

      .cls-14 {
        fill: #fff;
      }

      .cls-15 {
        fill: #984182;
      }

      .cls-5 {
        stroke: #688d3c;
      }

      .cls-6, .cls-13 {
        fill: #60a344;
        stroke: #60a344;
      }

      .cls-16 {
        fill: #e7d9d2;
      }

      .cls-7 {
        stroke: #d88247;
      }

      .cls-8 {
        stroke: #aebc86;
      }

      .cls-17 {
        fill: #78aa7e;
      }

      .cls-18 {
        fill: #eaa06a;
      }

      .cls-19 {
        fill: #7aaf42;
      }

      .cls-20 {
        fill: #f26743;
      }

      .cls-9 {
        stroke: #698e3c;
      }

      .cls-21 {
        fill: #7baf42;
      }

      .cls-22 {
        fill: #b48851;
      }

      .cls-10 {
        stroke: #3e773a;
      }

      .cls-23 {
        fill: #519147;
      }

      .cls-11 {
        stroke: #762163;
      }

      .cls-24 {
        fill: #dcb57e;
      }

      .cls-12 {
        stroke: #cf5a43;
      }

      .cls-25 {
        fill: url(#linear-gradient);
      }
    </style>
    <linearGradient id="linear-gradient" x1="912.1" y1="-1658.2" x2="912.1" y2="-1541.3" gradientTransform="translate(0 -1492.2) scale(1 -1)" gradientUnits="userSpaceOnUse">
      <stop offset=".2" stop-color="#eeebe5"/>
      <stop offset=".3" stop-color="#eee7e3"/>
      <stop offset=".4" stop-color="#e8dddf"/>
      <stop offset=".6" stop-color="#e0ced7"/>
      <stop offset=".7" stop-color="#d4b8cc"/>
      <stop offset=".8" stop-color="#c69bbe"/>
      <stop offset=".9" stop-color="#b87dae"/>
      <stop offset="1" stop-color="#a95a9d"/>
      <stop offset="1" stop-color="#a8599d"/>
    </linearGradient>
    <linearGradient id="linear-gradient-2" x1="56.8" y1="163.6" x2="56.8" y2="41.2" gradientUnits="userSpaceOnUse">
      <stop offset=".6" stop-color="#efebe5"/>
      <stop offset=".7" stop-color="#e9e7dd"/>
      <stop offset=".8" stop-color="#dbdfc8"/>
      <stop offset=".9" stop-color="#c3d1a6"/>
      <stop offset="1" stop-color="#b9cb98"/>
    </linearGradient>
  </defs>
  <!-- Generator: Adobe Illustrator 28.7.0, SVG Export Plug-In . SVG Version: 1.2.0 Build 136)  -->
  <g>
    <g id="Layer_1">
      <rect class="cls-14" width="990" height="100"/>
      <g>
        <g>
          <ellipse class="cls-19" cx="315.5" cy="29.7" rx="31.9" ry="21.7" transform="translate(132.1 288.1) rotate(-60)"/>
          <ellipse class="cls-19" cx="287" cy="33.3" rx="15.8" ry="23" transform="translate(47.6 195) rotate(-40.7)"/>
        </g>
        <g>
          <path class="cls-20" d="M352.3,83.3c-2.6-23.7-20.7-35.5-23.3-35.5h-49.9c-2.3,0-20.7,11.8-23.3,35.5-4.3,16.8,9.9,58.2,43,79.2,0,0,2.6,2.3,5.3,2.3s5.3-2.3,5.3-2.3c33.2-21.4,47.3-62.4,43-79.2Z"/>
          <g>
            <line class="cls-12" x1="319.5" y1="59.7" x2="336.6" y2="59.7"/>
            <line class="cls-12" x1="312.9" y1="65.6" x2="342.2" y2="65.6"/>
          </g>
        </g>
        <path class="cls-9" d="M305.4,45.5s-.3-15.4,17.4-29.6"/>
      </g>
      <g>
        <path class="cls-16" d="M232.2,87.1c-3.9-7.2-10.5-11.8-17.4-16.1-4.6-3-7.2-3.9-11.5-7.2-7.6-5.9-7.2-7.2-8.9-9.5-2.3-3.3-2.3-6.6-2.6-7.6-.3-4.3.3-14.5-.3-16.1-2-1-7.2-.3-9.5-.3h-.7c-2.3.3-7.6-.7-9.5.3-.3,1.6-.7,12.5-.7,16.8-.3,1,0,3.9-2.3,7.2-1.6,2.3-1.3,3.6-8.9,9.5-3.9,3-6.6,3.9-11.5,7.2-6.9,4.3-13.5,8.9-17.4,16.1-11.2,18.1-8.2,41.1,20.7,45.7,1.6.7,3.6,3,10.8,4.9,3.6,1,7.9,2,11.2,2s4.9.3,7.6.3,4.9,0,7.6-.3c3.6-.3,7.6-1,11.2-2,7.2-2.3,9.2-4.3,10.8-4.9,29.6-4.6,32.5-27.6,21.4-46Z"/>
        <path class="cls-3" d="M163.2,75.2c-11.5,11.5-24.6,35.5-10.5,51.9"/>
        <path class="cls-3" d="M200.3,75.2c11.5,11.8,24.6,35.8,10.5,52.2"/>
        <line class="cls-3" x1="185.2" y1="31.5" x2="185.2" y2="40.7"/>
        <line class="cls-3" x1="187.2" y1="32.2" x2="187.2" y2="50.3"/>
      </g>
      <g>
        <g>
          <path class="cls-24" d="M581.2,58.5c-59.9,9.7-59.3,84.6.3,98.6,32.5,6.6,73.3-14.4,80.5-48.1,12.2-67.7-32.8-60.5-80.8-50.6Z"/>
          <ellipse class="cls-22" cx="565.6" cy="79.1" rx="3.4" ry="2.2" transform="translate(36.2 293.4) rotate(-30)"/>
          <ellipse class="cls-22" cx="558.8" cy="90.6" rx="1.6" ry=".9" transform="translate(37.5 311.5) rotate(-32.2)"/>
          <ellipse class="cls-22" cx="651.6" cy="87" rx="4.4" ry="2.8" transform="translate(43.8 337.5) rotate(-30)"/>
        </g>
        <path class="cls-6" d="M627.7,32c-.6-1.6-11.2-35.9-41.5-15.3l-15.6,8.4s8.4,17.2,28.4,18.4c20.3,1.2,28.7-11.5,28.7-11.5Z"/>
        <path class="cls-6" d="M624.2,33.2c-.3-.9-5.9-26.5,20.6-24.7l12.8-.6s.9,13.7-11.2,21.8-22.2,3.4-22.2,3.4Z"/>
        <path class="cls-13" d="M625.2,33.2s6.9,6.6,5.9,25.3"/>
        <path class="cls-10" d="M591.5,25.7s20.9-3.1,30.3,3.7"/>
      </g>
      <g>
        <path class="cls-15" d="M725.2,141.1c-27.8-32-13.3-68.5,19.3-95.9,10.9-10.2,16.5-15.5,22.5-28.5,18.3-26,67.4,89.6,20.4,120.1-4.9,8.4-40,26.3-53.7,14.8-2.8-2.8-6-8.8-8.4-10.5Z"/>
        <path class="cls-11" d="M788.7,99.3s9.5.4,11.9,6"/>
        <path class="cls-11" d="M741.3,55.4s5.3-3.5,12.6-1.4"/>
      </g>
      <g>
        <path class="cls-17" d="M951.4,18.4c-4.9-3.9-12.5-3.6-19.1.7-2.6-10.8-10.5-19.1-20-19.1s-17.4,8.2-20,19.1c-6.6-4.3-14.1-4.6-19.1-.7-6.9,5.6-6.2,17.4,1.3,26.9,7.6,9.2,19.4,12.2,26,6.9,1-.7,1.6-1.6,2.3-2.3,3,2,5.9,3,9.5,3s6.6-1,9.5-3c.7,1,1.3,1.6,2.3,2.3,6.9,5.6,18.4,2.6,26-6.9,7.2-9.5,7.9-21.4,1.3-26.9Z"/>
        <path class="cls-25" d="M976.1,84.8c-3.6-23.7-27.6-35.5-30.9-35.5h-66.4c-3,0-27.3,11.8-30.9,35.5-5.6,16.8,12.8,58.2,56.8,79.2,0,0,3.6,2.3,6.9,2.3s6.9-2.3,6.9-2.3c44.7-21.4,63.4-62.4,57.5-79.2Z"/>
        <line class="cls-4" x1="933.7" y1="60.8" x2="956" y2="60.8"/>
        <line class="cls-4" x1="924.8" y1="67" x2="963.3" y2="67"/>
        <path class="cls-2" d="M930.4,21s-13.8,7.6-8.9,25"/>
      </g>
      <g>
        <path class="cls-21" d="M87.7,15.4c-3.9-3.4-9.9-2.9-15.1.6-1.9-9.2-8.3-16-15.8-16s-13.8,6.8-15.8,16c-5.3-3.5-11.2-4-15.1-.6-5.3,4.6-4.8,14.7,1.2,22.4,6,7.8,15.2,10.3,20.6,5.7.7-.6,1.2-1.2,1.7-2,2.2,1.5,4.7,2.4,7.4,2.4s5.2-.9,7.4-2.4c.5.7,1.1,1.4,1.7,2,5.3,4.6,14.6,2.1,20.6-5.7,6-7.8,6.6-17.8,1.2-22.4Z"/>
        <path class="cls-1" d="M107.4,78.4c-2.9-24.7-21.8-37.2-24.4-37.2H30.5c-2.4,0-21.6,12.5-24.4,37.2-4.4,17.5,10.2,60.7,45.1,82.7.1,0,2.8,2.5,5.6,2.6,2.8-.1,5.5-2.6,5.6-2.6,34.9-22,49.5-65.1,45.1-82.7Z"/>
        <line class="cls-8" x1="73.7" y1="53.6" x2="91.4" y2="53.6"/>
        <line class="cls-8" x1="66.7" y1="60" x2="97.2" y2="60"/>
        <path class="cls-5" d="M70.9,18.2s-10.9,6.3-7,21"/>
      </g>
      <g id="Layer_1-2" data-name="Layer_1">
        <g>
          <g>
            <path class="cls-23" d="M440.6,82s-1.3-13.6-3-21.9c-1.7-8.3-19.9-44.8-19.9-44.8,0,0-3-6.6,6.3-3.3,9.3,3.3,16.9,38.8,16.9,38.8,0,0,5.3,27.5,4,30.9s-4,0-4,0l-.3.3Z"/>
            <path class="cls-23" d="M443.3,84.9s-4.3-63.7-4.3-64.4S440.3-.3,444.3,0c4,.3,3,79,3,79v6s-4,0-4,0Z"/>
            <path class="cls-23" d="M445.6,81c0-1,5-66.4,14.3-61s-10.9,63.4-10.9,63.4"/>
          </g>
          <g>
            <path class="cls-18" d="M446.9,67.4c4-4,14.3-12.6,13.3-.3,0,1,.7,1,1.7,2,9,6.6,22.2,15.6,28.9,24.2,26.5,35.8-3.6,67.7-45.5,64.7-45.1.7-65.4-31.9-43.1-63.7,6-8.3,18.9-17.3,26.9-23.2,2.7-2,4.3-3,4.6-3.3v-3.6c1-8,11.6,2.3,13.3,3.6"/>
            <path class="cls-7" d="M440.6,76c-15.9,24.2-21.9,48.4-5.3,75.3"/>
            <path class="cls-7" d="M432,73.7c-24.2,20.2-42.8,47.1-15.3,73.7"/>
            <path class="cls-7" d="M452.9,76c15.9,24.2,21.9,48.4,5.3,75.3"/>
            <path class="cls-7" d="M461.5,73.7c24.2,20.2,42.8,47.1,15.3,73.7"/>
          </g>
        </g>
      </g>
    </g>
  </g>
</svg>