<?xml version="1.0" encoding="UTF-8"?>
<svg xmlns="http://www.w3.org/2000/svg" version="1.1" xmlns:xlink="http://www.w3.org/1999/xlink" viewBox="0 0 1920 300">
  <defs>
    <style>
      .cls-1 {
        stroke: #d88247;
      }

      .cls-1, .cls-2, .cls-3, .cls-4, .cls-5, .cls-6, .cls-7 {
        fill: none;
        stroke-linecap: round;
      }

      .cls-1, .cls-2, .cls-3, .cls-4, .cls-6, .cls-7 {
        stroke-miterlimit: 10;
        stroke-width: 2px;
      }

      .cls-8 {
        fill: #7baf42;
      }

      .cls-9 {
        fill: url(#linear-gradient-2);
      }

      .cls-10 {
        fill: #78aa7e;
      }

      .cls-11 {
        fill: #519147;
      }

      .cls-2 {
        stroke: #688d3c;
      }

      .cls-3 {
        stroke: #aebc86;
      }

      .cls-4 {
        stroke: #9b5b94;
      }

      .cls-5 {
        stroke: #dbcfc6;
        stroke-miterlimit: 10;
        stroke-width: 2px;
      }

      .cls-6 {
        stroke: #dacec6;
      }

      .cls-7 {
        stroke: #5d8c5f;
      }

      .cls-12 {
        fill: #eaa06a;
      }

      .cls-13 {
        fill: url(#linear-gradient);
      }
    </style>
    <linearGradient id="linear-gradient" x1="2891.8" y1="-3212.2" x2="2891.8" y2="-3359.5" gradientTransform="translate(-1273.5 -4025.6) rotate(120.8)" gradientUnits="userSpaceOnUse">
      <stop offset=".2" stop-color="#eeebe5"/>
      <stop offset=".3" stop-color="#eee7e3"/>
      <stop offset=".4" stop-color="#e8dddf"/>
      <stop offset=".6" stop-color="#e0ced7"/>
      <stop offset=".7" stop-color="#d4b8cc"/>
      <stop offset=".8" stop-color="#c69bbe"/>
      <stop offset=".9" stop-color="#b87dae"/>
      <stop offset="1" stop-color="#a95a9d"/>
      <stop offset="1" stop-color="#a8599d"/>
    </linearGradient>
    <linearGradient id="linear-gradient-2" x1="57.5" y1="932.6" x2="57.5" y2="1109.4" gradientTransform="translate(2312.8 -649.3) rotate(-146) scale(1 -1)" gradientUnits="userSpaceOnUse">
      <stop offset=".6" stop-color="#efebe5"/>
      <stop offset=".7" stop-color="#e9e7dd"/>
      <stop offset=".8" stop-color="#dbdfc8"/>
      <stop offset=".9" stop-color="#c3d1a6"/>
      <stop offset="1" stop-color="#b9cb98"/>
    </linearGradient>
  </defs>
  <!-- Generator: Adobe Illustrator 28.7.0, SVG Export Plug-In . SVG Version: 1.2.0 Build 136)  -->
  <g>
    <g id="Layer_1">
      <g>
        <path class="cls-10" d="M141.1,240.2c7.5-2.7,12-11.2,11.5-21.1,13.4,4.2,27.4.9,33.5-9.4,6.2-10.3,2.4-24.1-7.7-34,8.9-4.3,14.1-12.3,13-20.2-1.6-11-14.8-18-29.9-15.9-14.9,2.2-25.6,13.1-24.2,23.6,0,1.5.7,2.9,1,3.9-4,1.9-7,4.5-9.3,8.4-2.4,3.9-3.2,7.7-3,12.2-1.5,0-2.6.3-3.9,1-10.5,3.9-14.7,18.3-9.3,32.6,5.7,13.9,18,22.3,28.4,18.8h0Z"/>
        <path class="cls-13" d="M53.4,224.1c27.9,11.4,56.2-7.1,58.3-10.6,0,0,10.6-17.7,21.3-35.9,10.8-18.1,21.3-35.9,21.3-35.9,1.9-3.2,4.8-37.1-18.5-56.4-14.6-16.8-71.2-23.5-122.3,10.6,0,0-4.9,2.4-6.9,6-2.1,3.5-2,8.9-2,8.9-5.7,62.1,26.6,108.8,48.6,113.3h.1Z"/>
        <ellipse class="cls-5" cx="60.8" cy="87.8" rx="2.5" ry="1.3" transform="translate(-1 .7) rotate(-.6)"/>
        <ellipse class="cls-5" cx="47.5" cy="93" rx="1.6" ry=".8" transform="translate(-1 .5) rotate(-.6)"/>
        <line class="cls-4" x1="106.6" y1="193.8" x2="92.2" y2="217.9"/>
        <line class="cls-4" x1="105.6" y1="180" x2="80.9" y2="221.6"/>
        <path class="cls-7" d="M151.8,215.8s.7-19.9-21.4-25.7"/>
      </g>
      <g>
        <path class="cls-8" d="M1586.8,244.5c2,7.2,9.5,11.4,18.6,11.5-5.1,12.6-3,25.8,6,31.9s22,3.1,31.8-6.4c3.5,8.4,10.2,13.8,17.6,12.9,10.1-1.2,17.6-13.7,16.6-27.8-1-14.1-9.9-24.6-20.1-23.4-1.3.2-2.5.5-3.7,1-1.4-3.6-3.8-6.7-7-8.8s-6.9-3.1-10.8-3.1c0-1.3,0-2.5-.5-3.8-2.7-9.8-15.7-14.2-29.2-9.8-13.4,4.4-22.2,16-19.5,25.8h.2Z"/>
        <path class="cls-9" d="M1613.9,153.2c-16.5,31.9-3.9,62.1-.7,64.2s15.6,10.5,31.4,21.1,31.4,21.1,31.4,21.1c2.9,1.9,35.9,2.5,59.2-24.8,19.5-17.4,36.7-80.9,12.7-135.3,0,0-1.4-5.2-4.6-7.6-3.4-2.1-8.6-1.3-8.7-1.4-59.5-1.8-111.8,38-120.6,62.6h-.1Z"/>
        <path class="cls-6" d="M1746.3,151.2c.3-1.6,1-2.9,1.6-2.9s.9,1.2.7,2.7c-.3,1.6-1,2.9-1.6,2.9s-.9-1.2-.7-2.7Z"/>
        <path class="cls-6" d="M1744.3,136.9c.2-1,.6-1.8.9-1.8s.5.7.4,1.7-.6,1.8-.9,1.8c-.4,0-.5-.7-.4-1.7Z"/>
        <line class="cls-3" x1="1634.4" y1="210.1" x2="1613.2" y2="195.8"/>
        <line class="cls-3" x1="1647.8" y1="207.9" x2="1611.4" y2="183.4"/>
        <path class="cls-2" d="M1609.2,254.6s18.1,1.3,25.3-19.4"/>
      </g>
      <g>
        <g>
          <path class="cls-11" d="M506.7,125.6s15.3,21,25.6,33.3,76.7,54.9,76.7,54.9c0,0,11.2,8.5-7.2,11.6-18.5,3.2-65.4-48.6-65.4-48.6,0,0-35.6-40.3-36.4-47.2-.8-7,6.8-3.9,6.8-3.9h0Z"/>
          <path class="cls-11" d="M499.7,122.7s68.3,101.4,69,102.6c.7,1.3,17.9,36.6,11.1,39.5-6.9,3-80.5-128-80.5-128l-5.7-10,6.4-3.7-.3-.4h0Z"/>
          <path class="cls-11" d="M500,131.6c.9,1.6,55.4,115.2,34.5,115.1-20.9-.2-42.5-115.8-42.5-115.8"/>
        </g>
        <path class="cls-12" d="M499.7,131.8c-2,7.6-8.3,25.2-15.8,9.6-.7-1.2-1.5-.7-3.5-1.2-15.5-1.8-37.6-3.3-51.7-9.1-57-24.6-42.8-84.1,9.7-109.6,53.7-31.6,101.2-6.7,96.5,46.7-1.5,14.2-10.8,34-16.2,46.8-1.8,4.3-3.1,6.6-3.3,7.2.7,1.2,1.4,2.4,2.5,4.4,4.5,10.8-15.4,5.7-18.2,5.2"/>
        <path class="cls-1" d="M501.2,117c2.2-40.3-7.4-73.6-46.1-94.5"/>
        <path class="cls-1" d="M513,113.4c15-41.3,18.7-86.6-32.7-99"/>
        <path class="cls-1" d="M486.4,125.6c-36.1-18.1-60.2-43.1-58.9-87"/>
        <path class="cls-1" d="M477.4,134.1c-43.3-7.5-84.4-26.9-69.8-78.2"/>
      </g>
    </g>
  </g>
</svg>