
<svg xmlns="http://www.w3.org/2000/svg" version="1.1" xmlns:xlink="http://www.w3.org/1999/xlink" viewBox="0 0 1920 700">
  <defs>
    <style>
      .cls-1 {
        stroke: #dbcfc6;
        stroke-miterlimit: 10;
      }

      .cls-1, .cls-2, .cls-3, .cls-4, .cls-5, .cls-6, .cls-7, .cls-8, .cls-9, .cls-10, .cls-11, .cls-12, .cls-13, .cls-14, .cls-15 {
        stroke-linecap: round;
      }

      .cls-1, .cls-2, .cls-3, .cls-4, .cls-5, .cls-6, .cls-7, .cls-8, .cls-9, .cls-10, .cls-11, .cls-12, .cls-13, .cls-14, .cls-15, .cls-16 {
        stroke-width: 2px;
      }

      .cls-1, .cls-2, .cls-3, .cls-4, .cls-5, .cls-6, .cls-7, .cls-8, .cls-9, .cls-10, .cls-12, .cls-13, .cls-14, .cls-15 {
        fill: none;
      }

      .cls-2 {
        stroke: #5d8c5f;
      }

      .cls-2, .cls-3, .cls-4, .cls-5, .cls-6, .cls-8, .cls-9, .cls-10, .cls-11, .cls-12, .cls-13, .cls-15, .cls-16 {
        stroke-miterlimit: 10;
      }

      .cls-3 {
        stroke: #dacec6;
      }

      .cls-17 {
        fill: url(#linear-gradient-2);
      }

      .cls-18 {
        opacity: 1;
      }

      .cls-19 {
        fill: #984182;
      }

      .cls-20 {
        fill: #e7d9d2;
      }

      .cls-4 {
        stroke: #688d3c;
      }

      .cls-5 {
        stroke: #9b5b94;
      }

      .cls-21 {
        fill: #78aa7e;
      }

      .cls-22 {
        fill: #eaa06a;
      }

      .cls-6 {
        stroke: #3e773a;
      }

      .cls-23 {
        fill: #7aaf42;
      }

      .cls-7 {
        stroke-miterlimit: 10;
      }

      .cls-7, .cls-8, .cls-14 {
        stroke: #cf5a43;
      }

      .cls-9 {
        stroke: #aebc86;
      }

      .cls-24 {
        fill: #f26743;
      }

      .cls-25 {
        fill: #7baf42;
      }

      .cls-10 {
        stroke: #c7b0a8;
      }

      .cls-11, .cls-16 {
        fill: #60a344;
        stroke: #60a344;
      }

      .cls-12 {
        stroke: #762163;
      }

      .cls-26 {
        fill: #b48851;
      }

      .cls-13 {
        stroke: #698e3c;
      }

      .cls-27 {
        fill: #519147;
      }

      .cls-14 {
        stroke-miterlimit: 10;
      }

      .cls-28 {
        fill: #dcb57e;
      }

      .cls-15 {
        stroke: #d88247;
      }

      .cls-29 {
        fill: url(#linear-gradient);
      }
    </style>
    <linearGradient id="linear-gradient" x1="2549.6" y1="2930.5" x2="2549.6" y2="3095" gradientTransform="translate(-74.8 -3845.6) rotate(134.7) scale(1 -1)" gradientUnits="userSpaceOnUse">
      <stop offset=".2" stop-color="#eeebe5"/>
      <stop offset=".3" stop-color="#eee7e3"/>
      <stop offset=".4" stop-color="#e8dddf"/>
      <stop offset=".6" stop-color="#e0ced7"/>
      <stop offset=".7" stop-color="#d4b8cc"/>
      <stop offset=".8" stop-color="#c69bbe"/>
      <stop offset=".9" stop-color="#b87dae"/>
      <stop offset="1" stop-color="#a95a9d"/>
      <stop offset="1" stop-color="#a8599d"/>
    </linearGradient>
    <linearGradient id="linear-gradient-2" x1="324.4" y1="-985.4" x2="324.4" y2="-1162" gradientTransform="translate(2475.3 -621.5) rotate(-146)" gradientUnits="userSpaceOnUse">
      <stop offset=".6" stop-color="#efebe5"/>
      <stop offset=".7" stop-color="#e9e7dd"/>
      <stop offset=".8" stop-color="#dbdfc8"/>
      <stop offset=".9" stop-color="#c3d1a6"/>
      <stop offset="1" stop-color="#b9cb98"/>
    </linearGradient>
  </defs>
  <!-- Generator: Adobe Illustrator 28.7.0, SVG Export Plug-In . SVG Version: 1.2.0 Build 136)  -->
  <g>
    <g id="Layer_1">
      <g>
        <g>
          <ellipse class="cls-23" cx="1797.3" cy="395.4" rx="44.8" ry="30.5" transform="translate(1275.9 2160.2) rotate(-85.9)"/>
          <ellipse class="cls-23" cx="1763.5" cy="417.5" rx="22.2" ry="32.3" transform="translate(680.1 1870.3) rotate(-66.6)"/>
        </g>
        <g>
          <path class="cls-24" d="M1876.9,440.5c-17.9-28.3-48-32.1-51.3-30.5l-31.6,15.4-31.6,15.4c-2.9,1.4-18.9,27.7-7.7,59.2,4.9,23.8,48.2,67.5,103.1,73.6,0,0,4.7,1.3,8.1-.3s5.2-6.1,5.2-6.1c28.8-47.4,21.4-108,5.7-126.6Z"/>
          <g>
            <ellipse class="cls-7" cx="1815.5" cy="549.6" rx=".9" ry="2.8" transform="translate(197 1538.9) rotate(-48.3)"/>
            <ellipse class="cls-14" cx="1828.4" cy="554" rx=".5" ry="1.8" transform="translate(205.9 1562.7) rotate(-48.7)"/>
            <line class="cls-8" x1="1820.8" y1="430.9" x2="1842.4" y2="420.3"/>
            <line class="cls-8" x1="1816.1" y1="442.4" x2="1853.1" y2="424.4"/>
          </g>
        </g>
        <path class="cls-13" d="M1794.2,421.7s-9.9-19.3,3.8-48.1"/>
      </g>
      <g>
        <path class="cls-20" d="M644,617.6c-4.1-10.8-12.4-18.5-21.2-25.7-5.8-5-9.3-6.9-14.7-12.2-9.4-9.7-8.7-11.4-10.6-15-2.6-5-2-9.6-2.2-11,.4-6,3.2-20.1,2.6-22.5-2.6-1.7-10-1.8-13.2-2.3h-.5c0,0-.5-.1-.5-.1-3.3,0-10.4-2.3-13.3-1.3-.8,2.2-3.3,17.3-4.1,23.2-.6,1.3-.7,5.5-4.6,9.6-2.7,2.9-2.5,4.8-14.2,11.6-6.1,3.4-9.9,4.3-17.4,7.9-10.4,4.6-20.4,9.8-27.3,19.1-19,23.1-19.2,55.7,20.2,67.6,2.2,1.2,4.5,4.8,14.2,8.9,4.8,2.1,10.6,4.2,15.2,4.9s6.8,1.4,10.5,1.9,6.9.9,10.6,1c5.1.2,10.7,0,15.9-.6,10.5-1.8,13.6-4.2,16-4.8,42.1-.8,50.5-32.3,38.5-60.1Z"/>
        <path class="cls-10" d="M550.1,588.1c-18.2,13.8-41.1,44.8-24.5,70.3"/>
        <path class="cls-10" d="M601.9,595.1c13.8,18.7,27.6,54.6,4.8,74.8"/>
        <line class="cls-10" x1="589.1" y1="531.3" x2="587.3" y2="544.2"/>
        <line class="cls-10" x1="591.7" y1="532.6" x2="588.3" y2="557.8"/>
      </g>
      <g class="cls-18">
        <g>
          <path class="cls-27" d="M154.9,528.7s7.5-24.9,11.1-40.5c3.6-15.6-2.4-94.3-2.4-94.3,0,0,0-14.1,13.6-1.3,13.7,12.8.7,81.5.7,81.5,0,0-10.7,52.7-15.7,57.5-5.1,4.9-7.2-3.1-7.2-3.1Z"/>
          <path class="cls-27" d="M156.8,536.1s39.7-115.6,40.3-116.9,18.4-36.4,24.8-32.7c6.5,3.7-53.6,141.4-53.6,141.4l-4.5,10.6-6.8-2.9-.2.4Z"/>
          <path class="cls-27" d="M163.7,530.4c.7-1.7,58.5-113.7,71-96.9,12.5,16.8-66.8,103.7-66.8,103.7"/>
        </g>
        <path class="cls-22" d="M164.1,530.6c7.3-3,25.1-8.5,17.2,6.8-.5,1.3.3,1.6,1.1,3.5,7.9,13.4,20.1,32,23.9,46.7,14.7,60.3-41.3,84.9-93.3,58.4-57.6-23.8-66.4-76.7-20.9-105.1,12.2-7.4,33.6-11.9,47.1-15.3,4.5-1.1,7.2-1.5,7.8-1.7.5-1.3,1.1-2.6,2-4.7,5.8-10.1,13.8,8.8,15.2,11.4"/>
        <path class="cls-15" d="M151.3,538.3c-33.5,22.5-54.3,50.3-47.6,93.8"/>
        <path class="cls-15" d="M141.3,531c-42,12.9-80.4,37.3-59.3,85.8"/>
        <path class="cls-15" d="M167.1,544.9c7.3,39.7,1.9,74-33.9,99.5"/>
        <path class="cls-15" d="M179.2,547c20.1,39.1,29.4,83.6-20.3,102.8"/>
      </g>
      <g>
        <g>
          <path class="cls-28" d="M1263.7,546.2c-86,26-70.4,135.7,19.8,144.6,48.9,3.2,104.8-35.5,108.7-86.3,4.6-101.8-60-82.4-128.5-58.3Z"/>
          <ellipse class="cls-26" cx="1244.9" cy="579.5" rx="5.1" ry="3.2" transform="translate(-94.9 880.4) rotate(-37.6)"/>
          <ellipse class="cls-26" cx="1339.4" cy="656.2" rx="5.1" ry="3.2" transform="translate(-122.1 954.1) rotate(-37.6)"/>
          <ellipse class="cls-26" cx="1237.1" cy="597.7" rx="2.3" ry="1.4" transform="translate(-96 930.3) rotate(-39.8)"/>
          <ellipse class="cls-26" cx="1372.7" cy="574.1" rx="6.5" ry="4.2" transform="translate(-65 957.3) rotate(-37.6)"/>
          <ellipse class="cls-26" cx="1287.3" cy="677.1" rx="2.3" ry="1.4" transform="translate(-135.2 980.8) rotate(-39.8)"/>
          <ellipse class="cls-26" cx="1339.1" cy="663.6" rx="2.3" ry="1.4" transform="translate(-114.5 1010.9) rotate(-39.8)"/>
        </g>
        <path class="cls-16" d="M1326.7,498.1c-1.2-2.2-23.5-50.5-63.9-14.3l-21.2,15.4s15.7,23.5,45.3,21.4c30-2.2,39.9-22.6,39.9-22.6Z"/>
        <path class="cls-16" d="M1321.9,500.6c-.6-1.3-13.9-37.8,25.4-40.2l18.7-3.4s4.1,20-12.2,34.3c-16.3,14.3-31.8,9.4-31.8,9.4Z"/>
        <path class="cls-11" d="M1323.3,500.4s11.4,8.3,13.7,35.9"/>
        <path class="cls-6" d="M1272.4,496s30.1-8.7,45.2-.4"/>
      </g>
      <g>
        <path class="cls-19" d="M910.7,183.1c-55.7.8-80.2-44.6-80.1-100.7-1-19.6-1.5-29.7-9.6-46.7-10.7-40.4,147.3,8.1,138.1,81.4,4.3,12.1-7.5,62.6-30.7,66.6-5.2.4-13.9-1.4-17.7-.5Z"/>
        <path class="cls-12" d="M923.3,92.9s4.6-7.6,19.2-9.8"/>
        <path class="cls-12" d="M922.5,83.8s8.4-9.2,16.1-6.9"/>
        <path class="cls-12" d="M838.2,94.2s.9-8.3,9.3-13.9"/>
        <path class="cls-12" d="M897.9,144.6s3.3-7.5,8.4-8.6"/>
      </g>
      <g>
        <path class="cls-21" d="M322.4,213.5c8.8-1,16-8.9,18.2-19.7,13.4,8.1,29.4,8.3,38.9-1.2,9.4-9.5,9-25.5.8-38.9,10.8-2.3,18.6-9.6,19.5-18.4,1.2-12.4-11.2-23.5-28.2-25.3-16.7-1.6-31.3,7.3-32.6,19.1-.3,1.6,0,3.3,0,4.6-4.9,1-8.8,3-12.4,6.6s-5.5,7.5-6.5,12.4c-1.6-.3-2.9-.3-4.6,0-12.4,1.4-20.8,15.8-18.8,32.8,2.4,16.6,13.5,29,25.6,28Z"/>
        <path class="cls-29" d="M231.7,172.5c27.2,19.8,62.8,7.5,66,4.2,0,0,16.3-16.4,32.8-33.2,16.6-16.7,32.8-33.2,32.8-33.2,2.9-3,15.2-39-4.9-66-11.2-22.2-70.8-44.7-135.4-21.5,0,0-5.9,1.3-9.1,4.6s-4.5,9.2-4.5,9.2c-22.9,65.8-.4,125.1,22.2,135.8Z"/>
        <ellipse class="cls-1" cx="276.4" cy="26.7" rx="1.4" ry="2.8" transform="translate(186.7 289.5) rotate(-76.7)"/>
        <ellipse class="cls-1" cx="260.7" cy="28.8" rx=".9" ry="1.8" transform="translate(172.6 275.9) rotate(-76.7)"/>
        <line class="cls-5" x1="297.6" y1="153.8" x2="275.5" y2="176.2"/>
        <line class="cls-5" x1="300.2" y1="138.8" x2="262.1" y2="177.2"/>
        <path class="cls-2" d="M340.6,189.9s6.1-21.3-16.2-33.6"/>
      </g>
      <g>
        <path class="cls-25" d="M1499.4,167.1c2,7.2,9.5,11.4,18.6,11.5-5.1,12.6-3,25.8,6,31.9,9,6.1,22,3.1,31.8-6.4,3.5,8.4,10.2,13.8,17.6,12.9,10.1-1.2,17.6-13.7,16.6-27.8-1-14.1-9.9-24.6-20.1-23.4-1.3.2-2.5.5-3.7,1-1.4-3.6-3.8-6.7-7-8.8s-6.9-3.1-10.8-3.1c0-1.3-.1-2.5-.5-3.8-2.7-9.8-15.7-14.2-29.2-9.8-13.4,4.4-22.2,16-19.5,25.8Z"/>
        <path class="cls-17" d="M1526.5,75.8c-16.5,31.9-3.9,62.1-.7,64.2s15.6,10.5,31.4,21.1c15.8,10.6,31.4,21.1,31.4,21.1,2.9,1.9,35.9,2.5,59.2-24.8,19.5-17.4,36.7-80.9,12.7-135.3-.1,0-1.4-5.2-4.6-7.6-3.4-2.1-8.6-1.3-8.7-1.4-59.5-1.8-111.8,38-120.6,62.6Z"/>
        <path class="cls-3" d="M1658.9,73.8c.3-1.6,1-2.9,1.6-2.9.6,0,.9,1.2.7,2.7-.3,1.6-1,2.9-1.6,2.9-.6,0-.9-1.2-.7-2.7Z"/>
        <path class="cls-3" d="M1656.9,59.6c.2-1,.6-1.8.9-1.8s.5.7.4,1.7-.6,1.8-.9,1.8c-.4,0-.5-.7-.4-1.7Z"/>
        <line class="cls-9" x1="1546.9" y1="132.7" x2="1525.7" y2="118.4"/>
        <line class="cls-9" x1="1560.4" y1="130.6" x2="1524" y2="106"/>
        <path class="cls-4" d="M1521.7,177.2s18.1,1.3,25.3-19.4"/>
      </g>
    </g>
  </g>
</svg>