<?xml version="1.0" encoding="UTF-8"?>
<svg xmlns="http://www.w3.org/2000/svg" version="1.1" xmlns:xlink="http://www.w3.org/1999/xlink" viewBox="0 0 1920 300">
  <defs>
    <style>
      .cls-1 {
        stroke: #dbcfc6;
        stroke-miterlimit: 10;
      }

      .cls-1, .cls-2, .cls-3, .cls-4, .cls-5, .cls-6, .cls-7 {
        fill: none;
        stroke-linecap: round;
        stroke-width: 2px;
      }

      .cls-2 {
        stroke: #5d8c5f;
      }

      .cls-2, .cls-3, .cls-4, .cls-5, .cls-6, .cls-7 {
        stroke-miterlimit: 10;
      }

      .cls-3 {
        stroke: #dacec6;
      }

      .cls-8 {
        fill: url(#linear-gradient-2);
      }

      .cls-9 {
        fill: #984182;
      }

      .cls-4 {
        stroke: #688d3c;
      }

      .cls-5 {
        stroke: #9b5b94;
      }

      .cls-10 {
        fill: #78aa7e;
      }

      .cls-6 {
        stroke: #aebc86;
      }

      .cls-11 {
        fill: #7baf42;
      }

      .cls-7 {
        stroke: #762163;
      }

      .cls-12 {
        fill: url(#linear-gradient);
      }
    </style>
    <linearGradient id="linear-gradient" x1="2096.4" y1="3145.3" x2="2096.4" y2="3309.7" gradientTransform="translate(-629.9 -3614.1) rotate(134.7) scale(1 -1)" gradientUnits="userSpaceOnUse">
      <stop offset=".2" stop-color="#eeebe5"/>
      <stop offset=".3" stop-color="#eee7e3"/>
      <stop offset=".4" stop-color="#e8dddf"/>
      <stop offset=".6" stop-color="#e0ced7"/>
      <stop offset=".7" stop-color="#d4b8cc"/>
      <stop offset=".8" stop-color="#c69bbe"/>
      <stop offset=".9" stop-color="#b87dae"/>
      <stop offset="1" stop-color="#a95a9d"/>
      <stop offset="1" stop-color="#a8599d"/>
    </linearGradient>
    <linearGradient id="linear-gradient-2" x1="591.4" y1="413.3" x2="591.4" y2="236.6" gradientTransform="translate(2032.6 743.1) rotate(-146)" gradientUnits="userSpaceOnUse">
      <stop offset=".6" stop-color="#efebe5"/>
      <stop offset=".7" stop-color="#e9e7dd"/>
      <stop offset=".8" stop-color="#dbdfc8"/>
      <stop offset=".9" stop-color="#c3d1a6"/>
      <stop offset="1" stop-color="#b9cb98"/>
    </linearGradient>
  </defs>
  <!-- Generator: Adobe Illustrator 28.7.0, SVG Export Plug-In . SVG Version: 1.2.0 Build 136)  -->
  <g>
    <g id="Layer_1">
      <g>
        <path class="cls-9" d="M674.8,187.9c-55.7.8-80.2-44.6-80.1-100.7-1-19.6-1.5-29.7-9.6-46.7C574.6,0,732.5,48.5,723.3,121.8c4.3,12.1-7.5,62.6-30.7,66.6-5.2.4-13.9-1.4-17.7-.5Z"/>
        <path class="cls-7" d="M687.5,97.6s4.6-7.6,19.2-9.8"/>
        <path class="cls-7" d="M686.7,88.5s8.4-9.2,16.1-6.9"/>
        <path class="cls-7" d="M602.3,99s.9-8.3,9.3-13.9"/>
        <path class="cls-7" d="M662,149.3s3.3-7.5,8.4-8.6"/>
      </g>
      <g>
        <path class="cls-10" d="M238.8,274c8.8-1,16-8.9,18.2-19.7,13.4,8.1,29.4,8.3,38.9-1.2s9-25.5.8-38.9c10.8-2.3,18.6-9.6,19.5-18.4,1.2-12.4-11.2-23.5-28.2-25.3-16.7-1.6-31.3,7.3-32.6,19.1-.3,1.6,0,3.3,0,4.6-4.9,1-8.8,3-12.4,6.6s-5.5,7.5-6.5,12.4c-1.6-.3-2.9-.3-4.6,0-12.4,1.4-20.8,15.8-18.8,32.8,2.4,16.6,13.5,29,25.6,28Z"/>
        <path class="cls-12" d="M148.1,233c27.2,19.8,62.8,7.5,66,4.2,0,0,16.3-16.4,32.8-33.2,16.6-16.7,32.8-33.2,32.8-33.2,2.9-3,15.2-39-4.9-66-11.2-22.2-70.8-44.7-135.4-21.5,0,0-5.9,1.3-9.1,4.6s-4.5,9.2-4.5,9.2c-22.9,65.8-.4,125.1,22.2,135.8Z"/>
        <ellipse class="cls-1" cx="192.8" cy="87.3" rx="1.4" ry="2.8" transform="translate(63.5 254.8) rotate(-76.7)"/>
        <ellipse class="cls-1" cx="177.2" cy="89.3" rx=".9" ry="1.8" transform="translate(49.4 241.2) rotate(-76.7)"/>
        <line class="cls-5" x1="214" y1="214.4" x2="191.9" y2="236.7"/>
        <line class="cls-5" x1="216.6" y1="199.3" x2="178.6" y2="237.7"/>
        <path class="cls-2" d="M257,250.4s6.1-21.3-16.2-33.6"/>
      </g>
      <g>
        <path class="cls-11" d="M1616.5,222.4c2,7.2,9.5,11.4,18.6,11.5-5.1,12.6-3,25.8,6,31.9,9,6.1,22,3.1,31.8-6.4,3.5,8.4,10.2,13.8,17.6,12.9,10.1-1.2,17.6-13.7,16.6-27.8-1-14.1-9.9-24.6-20.1-23.4-1.3.2-2.5.5-3.7,1-1.4-3.6-3.8-6.7-7-8.8s-6.9-3.1-10.8-3.1c0-1.3-.1-2.5-.5-3.8-2.7-9.8-15.7-14.2-29.2-9.8-13.4,4.4-22.2,16-19.5,25.8Z"/>
        <path class="cls-8" d="M1643.6,131.1c-16.5,31.9-3.9,62.1-.7,64.2s15.6,10.5,31.4,21.1c15.8,10.6,31.4,21.1,31.4,21.1,2.9,1.9,35.9,2.5,59.2-24.8,19.5-17.4,36.7-80.9,12.7-135.3-.1,0-1.4-5.2-4.6-7.6-3.4-2.1-8.6-1.3-8.7-1.4-59.5-1.8-111.8,38-120.6,62.6Z"/>
        <path class="cls-3" d="M1776,129.1c.3-1.6,1-2.9,1.6-2.9.6,0,.9,1.2.7,2.7-.3,1.6-1,2.9-1.6,2.9-.6,0-.9-1.2-.7-2.7Z"/>
        <path class="cls-3" d="M1774,114.8c.2-1,.6-1.8.9-1.8s.5.7.4,1.7-.6,1.8-.9,1.8c-.4,0-.5-.7-.4-1.7Z"/>
        <line class="cls-6" x1="1664.1" y1="188" x2="1642.9" y2="173.7"/>
        <line class="cls-6" x1="1677.5" y1="185.8" x2="1641.1" y2="161.3"/>
        <path class="cls-4" d="M1638.9,232.5s18.1,1.3,25.3-19.4"/>
      </g>
    </g>
  </g>
</svg>