<?xml version="1.0" encoding="UTF-8"?>
<svg xmlns="http://www.w3.org/2000/svg" version="1.1" viewBox="0 0 1920 300">
  <defs>
    <style>
      .cls-1 {
        opacity: 1;
      }

      .cls-2 {
        fill: #e7d9d2;
      }

      .cls-3 {
        fill: #eaa06a;
      }

      .cls-4 {
        stroke: #3e773a;
      }

      .cls-4, .cls-5, .cls-6, .cls-7, .cls-8, .cls-9, .cls-10, .cls-11 {
        stroke-linecap: round;
      }

      .cls-4, .cls-5, .cls-6, .cls-7, .cls-8, .cls-9, .cls-10, .cls-11, .cls-12 {
        stroke-width: 2px;
      }

      .cls-4, .cls-5, .cls-6, .cls-7, .cls-9, .cls-10, .cls-11 {
        fill: none;
      }

      .cls-4, .cls-6, .cls-7, .cls-8, .cls-9, .cls-11, .cls-12 {
        stroke-miterlimit: 10;
      }

      .cls-13 {
        fill: #7aaf42;
      }

      .cls-5 {
        stroke-miterlimit: 10;
      }

      .cls-5, .cls-6, .cls-10 {
        stroke: #cf5a43;
      }

      .cls-14 {
        fill: #f26743;
      }

      .cls-7 {
        stroke: #c7b0a8;
      }

      .cls-8, .cls-12 {
        fill: #60a344;
        stroke: #60a344;
      }

      .cls-15 {
        fill: #b48851;
      }

      .cls-9 {
        stroke: #698e3c;
      }

      .cls-16 {
        fill: #519147;
      }

      .cls-10 {
        stroke-miterlimit: 10;
      }

      .cls-17 {
        fill: #dcb57e;
      }

      .cls-11 {
        stroke: #d88247;
      }
    </style>
  </defs>
  <!-- Generator: Adobe Illustrator 28.7.0, SVG Export Plug-In . SVG Version: 1.2.0 Build 136)  -->
  <g>
    <g id="Layer_1">
      <g>
        <g>
          <ellipse class="cls-13" cx="1743.9" cy="59.4" rx="44.8" ry="30.5" transform="translate(1561.5 1794.7) rotate(-85.9)"/>
          <ellipse class="cls-13" cx="1710.2" cy="81.5" rx="22.2" ry="32.3" transform="translate(956.4 1618.7) rotate(-66.6)"/>
        </g>
        <g>
          <path class="cls-14" d="M1823.5,104.5c-17.9-28.3-48-32.1-51.3-30.5l-31.6,15.4-31.6,15.4c-2.9,1.4-18.9,27.7-7.7,59.2,4.9,23.8,48.2,67.5,103.1,73.6,0,0,4.7,1.3,8.1-.3s5.2-6.1,5.2-6.1c28.8-47.4,21.4-108,5.7-126.6Z"/>
          <g>
            <ellipse class="cls-5" cx="1762.1" cy="213.6" rx=".9" ry="2.8" transform="translate(430 1386.7) rotate(-48.3)"/>
            <ellipse class="cls-10" cx="1775" cy="218" rx=".5" ry="1.8" transform="translate(440.3 1408.2) rotate(-48.7)"/>
            <line class="cls-6" x1="1767.4" y1="94.8" x2="1789" y2="84.3"/>
            <line class="cls-6" x1="1762.8" y1="106.4" x2="1799.7" y2="88.4"/>
          </g>
        </g>
        <path class="cls-9" d="M1740.9,85.7s-9.9-19.3,3.8-48.1"/>
      </g>
      <g>
        <path class="cls-2" d="M584,192c-1.1-11.5-7.1-21.1-13.7-30.4-4.3-6.4-7.2-9.1-10.9-15.7-6.5-11.8-5.4-13.3-6.2-17.2-1.2-5.5.6-9.8.7-11.2,1.9-5.7,8.4-18.5,8.4-21-2-2.4-9.2-4.4-12.2-5.7l-.4-.2-.4-.2c-3.2-.8-9.4-5-12.5-4.8-1.3,1.9-7.7,15.8-10.1,21.3-1,1.1-2.2,5.1-6.9,8.1-3.4,2.1-3.7,4-16.7,7.5-6.7,1.7-10.7,1.5-18.9,3-11.3,1.7-22.3,4.1-31.4,11.3-24.4,17.3-33.2,48.7,1.7,70.5,1.8,1.8,3.1,5.8,11.3,12.3,4.1,3.3,9.1,6.9,13.4,8.7s6.2,3.1,9.6,4.6c3,1.3,6.4,2.7,10,3.7,4.9,1.6,10.3,2.9,15.5,3.6,10.6,1,14.3-.5,16.7-.4,40.8,10.3,57.3-17.9,52.9-47.8Z"/>
        <path class="cls-7" d="M501.2,138.8c-21.2,8.6-51.4,32.4-42.1,61.4"/>
        <path class="cls-7" d="M549.3,159.2c8.4,21.6,12.2,59.9-15.1,73.4"/>
        <line class="cls-7" x1="553.7" y1="94.3" x2="548.6" y2="106.2"/>
        <line class="cls-7" x1="555.9" y1="96.2" x2="546" y2="119.6"/>
      </g>
      <g class="cls-1">
        <g>
          <path class="cls-16" d="M171.9,159.1s7.5-24.9,11.1-40.5c3.6-15.6-2.4-94.3-2.4-94.3,0,0,0-14.1,13.6-1.3,13.7,12.8.7,81.5.7,81.5,0,0-10.7,52.7-15.7,57.5-5.1,4.9-7.2-3.1-7.2-3.1Z"/>
          <path class="cls-16" d="M173.8,166.5s39.7-115.6,40.3-116.9,18.4-36.4,24.8-32.7c6.5,3.7-53.6,141.4-53.6,141.4l-4.5,10.6-6.8-2.9-.2.4Z"/>
          <path class="cls-16" d="M180.7,160.9c.7-1.7,58.5-113.7,71-96.9,12.5,16.8-66.8,103.7-66.8,103.7"/>
        </g>
        <path class="cls-3" d="M181.1,161c7.3-3,25.1-8.5,17.2,6.8-.5,1.3.3,1.6,1.1,3.5,7.9,13.4,20.1,32,23.9,46.7,14.7,60.3-41.3,84.9-93.3,58.4-57.6-23.8-66.4-76.7-20.9-105.1,12.2-7.4,33.6-11.9,47.1-15.3,4.5-1.1,7.2-1.5,7.8-1.7.5-1.3,1.1-2.6,2-4.7,5.8-10.1,13.8,8.8,15.2,11.4"/>
        <path class="cls-11" d="M168.4,168.7c-33.5,22.5-54.3,50.3-47.6,93.8"/>
        <path class="cls-11" d="M158.4,161.5c-42,12.9-80.4,37.3-59.3,85.8"/>
        <path class="cls-11" d="M184.1,175.3c7.3,39.7,1.9,74-33.9,99.5"/>
        <path class="cls-11" d="M196.3,177.4c20.1,39.1,29.4,83.6-20.3,102.8"/>
      </g>
      <g>
        <g>
          <path class="cls-17" d="M1332.5,163c-68.8,20.8-56.3,108.6,15.9,115.8,39.1,2.6,83.9-28.4,87-69.1,3.7-81.4-48-65.9-102.9-46.7Z"/>
          <ellipse class="cls-15" cx="1317.5" cy="189.6" rx="4.1" ry="2.6" transform="translate(158.2 843.7) rotate(-37.6)"/>
          <ellipse class="cls-15" cx="1393.1" cy="251.1" rx="4.1" ry="2.6" transform="translate(136.4 902.6) rotate(-37.6)"/>
          <ellipse class="cls-15" cx="1311.3" cy="204.2" rx="1.8" ry="1.1" transform="translate(173.1 886.6) rotate(-39.8)"/>
          <ellipse class="cls-15" cx="1419.8" cy="185.3" rx="5.2" ry="3.3" transform="translate(182.1 905.2) rotate(-37.6)"/>
          <ellipse class="cls-15" cx="1351.5" cy="267.8" rx="1.8" ry="1.1" transform="translate(141.7 927.1) rotate(-39.8)"/>
          <ellipse class="cls-15" cx="1392.9" cy="257" rx="1.8" ry="1.1" transform="translate(158.2 951.1) rotate(-39.8)"/>
        </g>
        <path class="cls-12" d="M1383,124.5c-1-1.7-18.8-40.4-51.1-11.4l-17,12.3s12.6,18.8,36.2,17.2c24-1.7,31.9-18.1,31.9-18.1Z"/>
        <path class="cls-12" d="M1379.1,126.5c-.5-1.1-11.1-30.2,20.3-32.2l14.9-2.7s3.3,16-9.8,27.4c-13,11.4-25.5,7.5-25.5,7.5Z"/>
        <path class="cls-8" d="M1380.2,126.4s9.1,6.6,10.9,28.8"/>
        <path class="cls-4" d="M1339.5,122.9s24.1-6.9,36.1-.4"/>
      </g>
    </g>
  </g>
</svg>