<?xml version="1.0" encoding="utf-8"?>
<!-- Generator: Adobe Illustrator 27.0.0, SVG Export Plug-In . SVG Version: 6.00 Build 0)  -->
<svg version="1.1" id="Layer_1" xmlns="http://www.w3.org/2000/svg" xmlns:xlink="http://www.w3.org/1999/xlink" x="0px" y="0px"
	 viewBox="0 0 1920 300" style="enable-background:new 0 0 1920 300;" xml:space="preserve">
<style type="text/css">
	.st0{fill:#7AAF42;}
	.st1{fill:#F26743;}
	.st2{fill:none;stroke:#CF5A43;stroke-width:2;stroke-linecap:round;stroke-miterlimit:10;}
	.st3{fill:none;stroke:#CF5A43;stroke-width:2;stroke-linecap:round;stroke-miterlimit:10.0001;}
	.st4{fill:none;stroke:#698E3C;stroke-width:2;stroke-linecap:round;stroke-miterlimit:10;}
	.st5{fill:#DCB57E;}
	.st6{fill:#B48851;}
	.st7{fill:#60A344;stroke:#60A344;stroke-width:2;stroke-miterlimit:10;}
	.st8{fill:#60A344;stroke:#60A344;stroke-width:2;stroke-linecap:round;stroke-miterlimit:10;}
	.st9{fill:none;stroke:#3E773A;stroke-width:2;stroke-linecap:round;stroke-miterlimit:10;}
	.st10{fill:#984182;}
	.st11{fill:none;stroke:#762163;stroke-width:2;stroke-linecap:round;stroke-miterlimit:10;}
</style>
<g>
	<g>
		
			<ellipse transform="matrix(0.813 -0.5822 0.5822 0.813 274.4487 1079.1207)" class="st0" cx="1817.5" cy="112.2" rx="40.5" ry="27.6"/>
		
			<ellipse transform="matrix(0.9598 -0.2808 0.2808 0.9598 43.4544 504.4184)" class="st0" cx="1782.1" cy="100.6" rx="20.1" ry="29.2"/>
	</g>
	<g>
		<path class="st1" d="M1831.2,192.5c9.3-28.8-5.4-51.9-8.4-53.3l-28.9-13.1L1765,113c-2.7-1.2-30.1,2.8-45.6,28.8
			c-13.7,17.2-19.1,72.5,8.4,114.2c0,0,1.8,4,4.9,5.5c3.1,1.5,7.3,0.1,7.3,0.1C1789.5,254.2,1827.4,214.1,1831.2,192.5L1831.2,192.5
			z"/>
		<g>
			
				<ellipse transform="matrix(3.476313e-02 -0.9994 0.9994 3.476313e-02 1448.2256 1923.8622)" class="st2" cx="1720.1" cy="212.2" rx="2.5" ry="0.8"/>
			
				<ellipse transform="matrix(2.779449e-02 -0.9996 0.9996 2.779449e-02 1451.53 1942.3898)" class="st3" cx="1724.3" cy="225" rx="1.6" ry="0.5"/>
			<line class="st2" x1="1805.6" y1="147.8" x2="1825.4" y2="156.8"/>
			<line class="st2" x1="1794.9" y1="151.3" x2="1828.7" y2="166.6"/>
		</g>
	</g>
	<path class="st4" d="M1796.6,124.1c0,0,7.7-18,35.7-25.2"/>
</g>
<g>
	<g>
		<path class="st5" d="M1342.4,190.5c-63,28.4-40.1,110.5,29.6,108.3c37.6-2.4,76.4-37.5,74.3-76.7
			C1439.6,144.1,1392.3,165.4,1342.4,190.5L1342.4,190.5z"/>
		
			<ellipse transform="matrix(0.7066 -0.7076 0.7076 0.7066 236.4543 1006.3652)" class="st6" cx="1331.7" cy="218.1" rx="3.9" ry="2.5"/>
		
			<ellipse transform="matrix(0.7066 -0.7076 0.7076 0.7066 225.0248 1077.1877)" class="st6" cx="1411.4" cy="267.3" rx="3.9" ry="2.5"/>
		
			<ellipse transform="matrix(0.6789 -0.7343 0.7343 0.6789 255.6989 1049.1904)" class="st6" cx="1327.3" cy="232.3" rx="1.7" ry="1.1"/>
		
			<ellipse transform="matrix(0.7066 -0.7076 0.7076 0.7066 276.8037 1070.0333)" class="st6" cx="1428.7" cy="201.2" rx="5" ry="3.2"/>
		
			<ellipse transform="matrix(0.6789 -0.7343 0.7343 0.6789 229.7141 1100.964)" class="st6" cx="1373.5" cy="287.9" rx="1.7" ry="1.1"/>
		
			<ellipse transform="matrix(0.6789 -0.7343 0.7343 0.6789 253.2888 1123.9749)" class="st6" cx="1411.6" cy="272.4" rx="1.7" ry="1.1"/>
	</g>
	<path class="st7" d="M1385.7,147.5c-1.2-1.5-22.9-36.1-50.1-4.5l-14.7,13.8c0,0,14.3,16.3,36.6,11.9
		C1380.2,164.1,1385.7,147.5,1385.7,147.5z"/>
	<path class="st7" d="M1382.2,149.9c-0.6-1-14.3-27.4,15.3-33.2l13.9-4.4c0,0,5.1,14.8-5.9,27.3
		C1394.5,152.1,1382.1,149.9,1382.2,149.9L1382.2,149.9z"/>
	<path class="st8" d="M1383.3,149.7c0,0,9.5,5.2,14,26.1"/>
	<path class="st9" d="M1344.1,151.4c0,0,22.1-9.6,34.3-4.9"/>
</g>
<g>
	<path class="st10" d="M240,181.9c-29.5-47.2-3.4-91.7,44.7-120.7c16.3-11,24.6-16.7,35-32.4c29.2-29.9,69.5,130.3,2,160.4
		c-8.1,9.9-57.4,26-72.9,8.2C245.7,193.1,242.8,184.8,240,181.9L240,181.9z"/>
	<path class="st11" d="M323.8,146c0,0,8.9,0,18.3,11.3"/>
	<path class="st11" d="M331.2,140.7c0,0,12.3,2.4,14.2,10.2"/>
	<path class="st11" d="M278.5,73.8c0,0,7.5-3.6,16.7,0.8"/>
	<path class="st11" d="M266.4,150.9c0,0,8.1-1,11.7,2.7"/>
</g>
</svg>
