<svg width="15" height="15" viewBox="0 0 15 15" fill="none" xmlns="http://www.w3.org/2000/svg">
<path d="M7.50124 1.7161C8.35822 0.949447 9.47619 0.539978 10.6256 0.571775C11.775 0.603571 12.8686 1.07422 13.6819 1.88708C14.4943 2.69937 14.9652 3.79164 14.9982 4.93999C15.0311 6.08835 14.6235 7.20579 13.8589 8.06327L7.49974 14.4314L1.14208 8.06327C0.376624 7.20535 -0.0313622 6.08694 0.00188321 4.93767C0.0351287 3.78839 0.507083 2.69544 1.32085 1.8832C2.13462 1.07097 3.22846 0.60108 4.3778 0.570005C5.52714 0.53893 6.64477 0.949027 7.50124 1.7161ZM12.6201 2.94669C12.0781 2.40569 11.3498 2.09242 10.5844 2.07109C9.81894 2.04976 9.07432 2.32198 8.50311 2.83196L7.50199 3.73034L6.50012 2.83271C5.93145 2.32419 5.19039 2.05146 4.42775 2.07C3.6651 2.08854 2.93817 2.39697 2.39488 2.93251C1.85159 3.46806 1.53277 4.19049 1.50329 4.95279C1.47381 5.7151 1.73588 6.45999 2.23619 7.0359L7.50049 12.3085L12.7648 7.03665C13.263 6.46328 13.5251 5.72226 13.4983 4.96316C13.4714 4.20405 13.1575 3.48341 12.6201 2.94669Z" fill="#333333"/>
</svg>
