<?xml version="1.0" encoding="utf-8"?>
<!-- Generator: Adobe Illustrator 27.0.0, SVG Export Plug-In . SVG Version: 6.00 Build 0)  -->
<svg version="1.1" id="Layer_1" xmlns="http://www.w3.org/2000/svg" xmlns:xlink="http://www.w3.org/1999/xlink" x="0px" y="0px"
	 viewBox="0 0 450 500" style="enable-background:new 0 0 450 500;" xml:space="preserve">
<style type="text/css">
	.st0{fill:#86D1D0;}
	.st1{fill:#F9F28D;}
	.st2{fill:#A4D396;}
	.st3{fill:#A0D152;}
	.st4{fill:#CCBA72;}
	.st5{fill:#FAAB2C;}
</style>
<g>
	<path class="st0" d="M104.3,187.1c0,0-116.8,8.3-72.7,54.1s53.7,22.4,52.8,50.1s46.7,0,46.7,0s10.4,20.8-6.9,38.9
		s25.1,68.8,51.9,64.3c26.8-4.6,102.1,18.3,82.2-28.2c-19.9-46.5-13.3-64.6,3.3-64.6s23.5,26.8,47.8,19.9
		c24.2-6.9,51.1-29.4,45-45.9c-6.1-16.4,13.9-24.1,24.2-29.3c10.4-5.3,6.9-56.3-34.6-45.1s-45.9-38.1-26.8-45.9
		c19-7.8-41.5-66.6-68.4-53.7s10.4,47.3-19,60.4s-45,2.7-45-10.3S31.6,105.3,104.3,187.1z"/>
	<path class="st0" d="M345.8,158.3c0,0-28.6,11.2-18.2,23.4c10.4,12.1,18.2-13,43.3,12.1c25.1,25.1,64.9,17.3,56.3-5.2
		C418.5,166.1,401.2,117.7,345.8,158.3L345.8,158.3z"/>
	<path class="st0" d="M325.3,122c0,0,9.8,28.6,0,39.8c-9.8,11.2,37.8-18.2,24.8-39.8C337.1,100.4,325.3,122,325.3,122z"/>
	<path class="st0" d="M84.4,345.3c0,0,9.5,30.3,30.3,34.6c20.8,4.3,26.8,22.5,0,19.9c-26.8-2.6-51.1-43.3-45-54.5
		C75.8,334.1,84.4,345.3,84.4,345.3L84.4,345.3z"/>
</g>
</svg>
