<?xml version="1.0" encoding="utf-8"?>
<!-- Generator: Adobe Illustrator 27.0.0, SVG Export Plug-In . SVG Version: 6.00 Build 0)  -->
<svg version="1.1" id="Layer_1" xmlns="http://www.w3.org/2000/svg" xmlns:xlink="http://www.w3.org/1999/xlink" x="0px" y="0px"
	 viewBox="0 0 450 500" style="enable-background:new 0 0 450 500;" xml:space="preserve">
<style type="text/css">
	.st0{fill:#86D1D0;}
	.st1{fill:#F9F28D;}
	.st2{fill:#A4D396;}
	.st3{fill:#A0D152;}
	.st4{fill:#CCBA72;}
	.st5{fill:#FAAB2C;}
</style>
<g>
	<path class="st1" d="M281.9,59.2c0,0-78.5,27.7-89.3,92.6c-10.8,65-95.3-6.7-116.6,40.8s-49,119.3-3.5,106.5s78.1-72.4,103.6-49.7
		S81.6,278.6,74.5,324s21.3,170.4,80.9,80.9c59.6-89.4,32.7-115.7,58.9-115c26.3,0.7,8.9,105.8-21.8,114.3s-17.9,82.4,36,35.5
		c54-46.8,119.3-125.7,77.4-175.3c0,0-17-31.2,5.7-27s103-85.2,67.5-112.1S367.8,32.3,281.9,59.2L281.9,59.2z"/>
	<path class="st1" d="M369.2,234.7c0,0-25.6,13.2-43.7,11.2c-18.1-2.1-12.4,12.5,12.4,25.3c24.8,12.8,76-5.1,61.8-25.3
		C385.5,225.7,369.2,234.7,369.2,234.7z"/>
	<path class="st1" d="M364,304.9c0,0-17.9-9.4-24-20.6s-12.2-2.1-9.5,17.3c2.6,19.4,33.5,41.7,39.4,25.4
		C375.8,310.6,364,304.9,364,304.9z"/>
	<path class="st1" d="M142,65.6c-15.8,21.8,22.4,57.5,34.1,39.4s-1.1-45.8,21.3-45.8S172.9,23,142,65.6L142,65.6z"/>
</g>
</svg>
