<?xml version="1.0" encoding="utf-8"?>
<!-- Generator: Adobe Illustrator 27.0.0, SVG Export Plug-In . SVG Version: 6.00 Build 0)  -->
<svg version="1.1" id="Layer_1" xmlns="http://www.w3.org/2000/svg" xmlns:xlink="http://www.w3.org/1999/xlink" x="0px" y="0px"
	 viewBox="0 0 450 500" style="enable-background:new 0 0 450 500;" xml:space="preserve">
<style type="text/css">
	.st0{fill:#86D1D0;}
	.st1{fill:#F9F28D;}
	.st2{fill:#A4D396;}
	.st3{fill:#A0D152;}
	.st4{fill:#CCBA72;}
	.st5{fill:#FAAB2C;}
</style>
<g>
	<path class="st2" d="M299.5,72c0,0,36.6,206.2-150.6,306.9S134,466.8,195,433.1c61.1-33.7,211.7-120.5,188.6-227.7
		C360.5,98.3,347,90.1,367.3,86.1C387.7,82,321.2-0.4,299.5,72L299.5,72z"/>
	<path class="st2" d="M244,161.1c0,0,61.9,5.7,35.2-17.9c-26.7-23.6-47.7-26.9-52.4-16.7C222.1,136.8,244,161.1,244,161.1L244,161.1
		z"/>
	<path class="st2" d="M336.7,356.4c0,0,29.8-26.9,43.4-20.6s1.5,37.6-16.3,36.1C346.1,370.4,326.4,364.7,336.7,356.4z"/>
	<path class="st2" d="M282.1,121.8c0,0-15.8,4.8-15.4-5.7c0.4-10.5,15.2-26.3,17.4-17.2C286.3,108,287.2,120.9,282.1,121.8z"/>
</g>
</svg>
