<?xml version="1.0" encoding="utf-8"?>
<!-- Generator: Adobe Illustrator 27.0.0, SVG Export Plug-In . SVG Version: 6.00 Build 0)  -->
<svg version="1.1" id="Layer_1" xmlns="http://www.w3.org/2000/svg" xmlns:xlink="http://www.w3.org/1999/xlink" x="0px" y="0px"
	 viewBox="0 0 403 473.1" style="enable-background:new 0 0 403 473.1;" xml:space="preserve">
<style type="text/css">
	.st0{fill:#A4D396;}
</style>
<path class="st0" d="M270.6,58.6c0,0,36.6,206.2-150.6,306.9s-14.9,87.9,46.1,54.2C227.2,386,377.8,299.2,354.7,192
	C331.6,84.9,318.1,76.7,338.4,72.7C358.8,68.6,292.3-13.8,270.6,58.6L270.6,58.6z"/>
<path class="st0" d="M215.1,147.7c0,0,61.9,5.7,35.2-17.9s-47.7-26.9-52.4-16.7C193.2,123.4,215.1,147.7,215.1,147.7L215.1,147.7z"
	/>
<path class="st0" d="M307.8,343c0,0,29.8-26.9,43.4-20.6c13.6,6.3,1.5,37.6-16.3,36.1C317.2,357,297.5,351.3,307.8,343z"/>
<path class="st0" d="M253.2,108.4c0,0-15.8,4.8-15.4-5.7s15.2-26.3,17.4-17.2C257.4,94.6,258.3,107.5,253.2,108.4z"/>
</svg>
