<?xml version="1.0" encoding="utf-8"?>
<!-- Generator: Adobe Illustrator 27.0.0, SVG Export Plug-In . SVG Version: 6.00 Build 0)  -->
<svg version="1.1" id="Layer_1" xmlns="http://www.w3.org/2000/svg" xmlns:xlink="http://www.w3.org/1999/xlink" x="0px" y="0px"
	 viewBox="0 0 343.7 324.4" style="enable-background:new 0 0 343.7 324.4;" xml:space="preserve">
<style type="text/css">
	.st0{fill:#A0D152;}
</style>
<path class="st0" d="M119.1,60c0,0-13.4,7.6-17.4,27.3s-20.4,3-27.7,35.5c-7.3,32.5-13.2,134,76.8,163.6
	c88.1,16.4,151.8-5.3,137.8-53.1S303,62.5,207.2,62.9c-95.9,0.4-55.1,18.3-57.6,2.6C147.1,49.7,119.1,60,119.1,60L119.1,60z"/>
<path class="st0" d="M90.7,87.3c0,0-39.1,9.7-55.1-13.6s3.9-29.6,23.8-16.6s20,29.8,31,24.1C101.6,75.6,90.7,87.3,90.7,87.3
	L90.7,87.3z"/>
<path class="st0" d="M74.1,97c-22.9,11.9-58.4,24.3-36.5,38.1s22.8-30.9,32.9-31.9S74.1,97,74.1,97z"/>
<path class="st0" d="M310.5,84.2c0,0-24-20.6-28.5-2.1c-4.5,18.6,10.9,52.9,23.8,39.2C318.8,107.7,310.5,84.2,310.5,84.2z"/>
<path class="st0" d="M272.8,77.1c0,0,4.4-15-3.6-13.7c-8,1.4-9.4,6.2-6.3,9.1C266.1,75.5,272.8,77.1,272.8,77.1z"/>
</svg>
