<?xml version="1.0" encoding="utf-8"?>
<!-- Generator: Adobe Illustrator 27.0.0, SVG Export Plug-In . SVG Version: 6.00 Build 0)  -->
<svg version="1.1" id="Layer_1" xmlns="http://www.w3.org/2000/svg" xmlns:xlink="http://www.w3.org/1999/xlink" x="0px" y="0px"
	 viewBox="0 0 450 500" style="enable-background:new 0 0 450 500;" xml:space="preserve">
<style type="text/css">
	.st0{fill:#86D1D0;}
	.st1{fill:#F9F28D;}
	.st2{fill:#A4D396;}
	.st3{fill:#A0D152;}
	.st4{fill:#CCBA72;}
	.st5{fill:#FAAB2C;}
</style>
<g>
	<path class="st3" d="M157.6,106.9c0,0-17.3,9.8-22.4,35.2c-5.2,25.4-26.3,3.9-35.7,45.7s-16.5,185,99.4,223.1
		c56.8,19.4,143.7,15.8,170.8-54.5c24.1-62.4,24.6-246.2-98.7-245.7c-123.5,0.5-70.9,23.6-74.2,3.3
		C193.7,93.6,157.6,106.9,157.6,106.9L157.6,106.9z"/>
	<path class="st3" d="M121,142.1c0,0-50.3,12.5-70.9-17.5s5-38.1,30.6-21.4s25.8,38.4,39.9,31C135.1,127,121,142.1,121,142.1
		L121,142.1z"/>
	<path class="st3" d="M99.7,154.5c-29.5,15.3-75.2,31.3-47,49.1S82,163.8,95,162.5C108,161.2,99.7,154.5,99.7,154.5z"/>
	<path class="st3" d="M404.1,138.1c0,0-30.9-26.5-36.7-2.7c-5.8,24,14,68.1,30.6,50.5C414.7,168.3,404.1,138.1,404.1,138.1z"/>
	<path class="st3" d="M355.5,128.9c0,0,5.7-19.3-4.6-17.6c-10.3,1.8-12.1,8-8.1,11.7C346.9,126.9,355.5,128.9,355.5,128.9z"/>
</g>
</svg>
