<?xml version="1.0" encoding="utf-8"?>
<!-- Generator: Adobe Illustrator 27.0.0, SVG Export Plug-In . SVG Version: 6.00 Build 0)  -->
<svg version="1.1" id="Layer_1" xmlns="http://www.w3.org/2000/svg" xmlns:xlink="http://www.w3.org/1999/xlink" x="0px" y="0px"
	 viewBox="0 0 369.3 302.5" style="enable-background:new 0 0 369.3 302.5;" xml:space="preserve">
<style type="text/css">
	.st0{fill:#CCBA72;}
</style>
<path class="st0" d="M155.8,73.4c0,0-143.2-34.8-125.4,103.7c0,0,20.1,91.4,89,42.6c0,0,19.5-11.5,20.9,3.1
	c3.1,30.9,3.9,43.3,20.9,37.9c0,0,7-0.1,0,9.6s87.5,17.5,82.8-16.6s-27.1-53.4-12.4-55.7s34.8,31,55.7,20.9
	c20.9-10.1,118.4-127-46.4-149.4C240.9,69.5,186,85.8,155.8,73.4L155.8,73.4z"/>
<path class="st0" d="M129.5,229.1c0,0-15.5,22.1-33.3,19.8s-24,25.3,0,24.2S129.5,229.1,129.5,229.1z"/>
<path class="st0" d="M201.5,65.1c0,0,7-35.9,30.2-36c23.2-0.1,34.8,4.8,27.9,15.9C252.6,56.2,214.6,45.5,201.5,65.1L201.5,65.1z"/>
<path class="st0" d="M183.9,36.2c0,0-9.2,22.8,8.1,16c17.4-6.8,12.9-24.3,19-27.5C217.3,21.5,191.9,12.6,183.9,36.2L183.9,36.2z"/>
</svg>
