<?xml version="1.0" encoding="utf-8"?>
<!-- Generator: Adobe Illustrator 27.0.0, SVG Export Plug-In . SVG Version: 6.00 Build 0)  -->
<svg version="1.1" id="Layer_1" xmlns="http://www.w3.org/2000/svg" xmlns:xlink="http://www.w3.org/1999/xlink" x="0px" y="0px"
	 viewBox="0 0 450 500" style="enable-background:new 0 0 450 500;" xml:space="preserve">
<style type="text/css">
	.st0{fill:#86D1D0;}
	.st1{fill:#F9F28D;}
	.st2{fill:#A4D396;}
	.st3{fill:#A0D152;}
	.st4{fill:#CCBA72;}
	.st5{fill:#FAAB2C;}
</style>
<g>
	<path class="st4" d="M192.4,404.3c2.3,5.6,6.9,9.9,12.6,11.7c28.9,9,107,7.3,101.7-30.7c-6.2-44.7-35.5-70-16.3-73
		c19.3-3,45.6,40.7,73,27.4c24.8-12,132.2-139-8.8-184.6c-25.8-8.3-53.3-9.8-79.9-4.8c-24.2,4.5-58.9,8.3-82.7-0.9
		c-0.7-0.3-1.5-0.6-2.3-0.8C-40.8,87.8-5.6,433.5,141.8,341.7c0.6-0.4,1.4-1,1.9-1.5c2.9-2.5,19.4-10.2,26.5,3.6
		c0.3,0.7,0.6,1.4,0.9,2.1C173.4,352.6,185.4,387.3,192.4,404.3z"/>
	<path class="st4" d="M155.4,357.6c0.3-1-1-1.7-1.7-0.9c-6.4,7.7-22.7,24.7-40.9,22.4c-23.3-3-31.5,33.2,0,31.7
		C138.9,409.6,151.7,371,155.4,357.6z"/>
	<path class="st4" d="M251,138c0,0,9.2-47.1,39.6-47.2c30.4-0.1,45.6,6.3,36.6,20.9C318,126.4,264.7,121.9,251,138L251,138z"/>
	<path class="st4" d="M227.9,100.1c0,0-12.1,29.9,10.6,21c22.8-8.9,16.9-31.9,24.9-36.1C271.7,80.9,238.4,69.2,227.9,100.1
		L227.9,100.1z"/>
</g>
</svg>
