<?xml version="1.0" encoding="utf-8"?>
<!-- Generator: Adobe Illustrator 27.0.0, SVG Export Plug-In . SVG Version: 6.00 Build 0)  -->
<svg version="1.1" id="Layer_1" xmlns="http://www.w3.org/2000/svg" xmlns:xlink="http://www.w3.org/1999/xlink" x="0px" y="0px"
	 viewBox="0 0 450 500" style="enable-background:new 0 0 450 500;" xml:space="preserve">
<style type="text/css">
	.st0{fill:#86D1D0;}
	.st1{fill:#F9F28D;}
	.st2{fill:#A4D396;}
	.st3{fill:#A0D152;}
	.st4{fill:#CCBA72;}
	.st5{fill:#FAAB2C;}
</style>
<g>
	<path class="st5" d="M355.9,138c34.9,5,64.1,31.5,71.3,65.9c12,57.5,14.2,139.7-11.5,154.7c-1.1,0.6-2.4,0.9-3.6,0.8
		c-4.7-0.3-17.8-0.1-20.5,8.9c-3.3,11.1-67.2,59.6-89.8,33.1s-21.3,16.2-33.5,14.6c-12.2-1.6-132.4,16-136.5-127.7
		c0-0.2,0-0.4-0.1-0.6c-0.5-3.3-4-33.4,17.1-55.7c1.4-1.5,2.1-3.5,1.7-5.6c-2.3-14.8-6.7-75,75.4-57.3c1,0.2,2,0.7,2.8,1.4
		c3.2,2.6,12.1,8.6,12.9-6.4l0,0c0,0-1.8-54.7,26.7-58.3c16.8-2.1,29.3,5.9,36.8,12.8c3.8,3.6,2.2,9.9-2.9,11.3
		c-12.8,3.4-31.5,11.6-23.2,29.6c0,0,1.7,8.8,14.6-5.5C306.5,139.8,326.6,136.7,355.9,138L355.9,138z"/>
	<path class="st5" d="M127.3,216.9c0,0-63.8-4.4-48.9,29.3s37.4-17.4,48.9-14.7C138.8,234.1,127.3,216.9,127.3,216.9L127.3,216.9z"
		/>
	<path class="st5" d="M132.4,210.3c0,0-11.4-31.7-64-25.8c-52.5,6-66.4-31.7-43.6-39.7S94.3,88.4,132.4,210.3L132.4,210.3z"/>
	<path class="st5" d="M377.3,94.2c0,0-17.6,14.9,2.6,17.2c20.1,2.3,40.7,5.4,32.6-12.9S386,79.5,377.3,94.2z"/>
</g>
</svg>
