<?xml version="1.0" encoding="utf-8"?>
<!-- Generator: Adobe Illustrator 27.0.0, SVG Export Plug-In . SVG Version: 6.00 Build 0)  -->
<svg version="1.1" id="Layer_1" xmlns="http://www.w3.org/2000/svg" xmlns:xlink="http://www.w3.org/1999/xlink" x="0px" y="0px"
	 viewBox="0 0 442.7 96.6" style="enable-background:new 0 0 442.7 96.6;" xml:space="preserve">
<style type="text/css">
	.st0{fill:#F26642;}
</style>
<g>
	<path class="st0" d="M50.1,45.5c-0.7-1.6-1.3-3.3-1.7-5.2L48.2,41l-1.7,3.8l-2.1,5.2v-0.1l-1.3,3.5c-0.7,1.7-1.3,3.4-1.9,5
		c-0.6,1.6-1.2,3.2-1.8,4.9l-0.8,2.1v-0.1l-3.8,10.3c-0.3,0.6-0.7,1.4-1.2,2.3c-0.4,0.9-1,2-1.8,3.2c-1.2,1.9-2.7,3.4-4.4,4.4
		c-1.7,1-3.5,1.5-5.4,1.5c-1.4,0-2.8-0.3-4.4-1c-1.5-0.7-2.9-1.8-4.1-3.2c-1.2-1.5-2.3-3.1-3.1-5c-0.9-1.9-1.5-3.8-1.9-5.8
		C7.8,68,7,64.1,6.2,60.1C5.4,56,4.7,52.1,4,48.4l-0.9-6.1c-0.2-1.4-0.4-2.8-0.7-4.2c-0.3-1.4-0.6-2.8-1-4.2l-0.9-4.3
		c0-0.2,0-0.4-0.1-0.8c0-0.3-0.1-0.7-0.2-1.2C0.1,26.7,0.1,25.8,0,25c0-0.9,0-1.9,0.1-3c0.3-2.1,1-3.7,2.3-5c1.3-1.3,2.9-2,4.9-2.1
		c2-0.2,3.7,0.3,5.1,1.5s2.4,2.8,2.9,4.9c0.8,3.6,1.5,7.3,2.1,11c0.6,3.7,1.3,7.4,1.9,11.1L21.7,55c0.2,1,0.4,2.1,0.6,3.1
		c0.2,1,0.4,2.1,0.6,3.2v0.1c0.7-1.7,1.5-3.6,2.3-5.5c0.8-2,1.5-3.7,2.1-5.4c0.9-2,1.7-4,2.5-5.9c0.8-2,1.5-3.9,2.2-5.9l6.6-16.5
		c0.6-1,1.3-2.2,2-3.5c0.7-1.3,1.4-2.5,2.2-3.5c1-1.5,2.2-2.6,3.8-3.4c1.6-0.8,3.3-1.1,5.1-0.7c2,0.3,3.6,1.2,4.7,2.5
		c1.1,1.3,1.9,2.9,2.2,4.6c1,4.9,2.2,9.5,3.6,14c1.5,4.5,3.1,8.7,4.8,12.7c0.9,2.4,1.8,4.8,2.7,7.2c0.9,2.4,1.7,4.7,2.4,7.1L72,58.9
		l0.4,1l0.5-1.6h-0.1l2.7-8.7c0.4-1.6,0.9-3.3,1.4-4.9c0.5-1.6,1-3.3,1.4-5l5.7-18.5v0.3c0-0.2,0-0.3,0.1-0.4c0-0.1,0.1-0.2,0.1-0.4
		c0.3-0.9,0.5-1.8,0.8-2.7c0.3-0.9,0.7-1.8,1.1-2.5c1-1.9,2.3-3.4,4-4.4c1.7-1,3.5-1.3,5.2-1c1.7,0.5,3.1,1.6,4.2,3.1
		c1.1,1.6,1.5,3.6,1.4,6.1c-0.2,1.9-0.4,3.4-0.8,4.5v-0.3c-0.1,0.1-0.1,0.3-0.1,0.5c0,0.1,0,0.2-0.1,0.3h0.1c-0.6,2.3-1.3,4.7-2.1,7
		c-0.8,2.3-1.6,4.6-2.3,6.8l-1.2,3.4h0.1l-4.7,15.2l-4.7,15c-0.3,1.1-0.8,2.3-1.4,3.4c-0.6,1.2-1.2,2.2-2,3.2
		c-0.8,1-1.7,1.8-2.8,2.4c-1.1,0.6-2.4,1.1-3.8,1.2c-2.9,0.3-5.4-0.2-7.7-1.5c-2.3-1.3-4.1-3.2-5.4-5.7c-1-2.1-2.1-4.2-3.1-6.4
		c-1-2.2-1.9-4.4-2.8-6.7c-1-2.6-2.1-5.3-3.1-8.2s-2-5.6-3-8.3V45.5z"/>
	<path class="st0" d="M123.7,48.2c0,2.8,0.5,5.4,1.6,7.7c1,2.4,2.4,4.4,4.2,6.2c1.8,1.7,3.8,3.1,6.2,4.2c2.3,1,4.8,1.6,7.4,1.6
		c0.8,0,1.6,0,2.5-0.1c0.9-0.1,1.8-0.3,2.7-0.5v0.1c1.7-0.6,3.4-1.2,4.9-1.8c1.6-0.6,3.2-1.3,4.8-2l2.9-1.3c1.5-0.6,2.9-0.9,4.4-0.9
		c2.6,0,4.6,1.1,6,3.2c1,1.6,1.3,3.5,0.9,5.7c-0.3,2.1-1.5,3.8-3.5,5.1c-8.5,5.5-16.9,8.3-25.3,8.3c-3.9,0-7.6-0.6-11.2-1.9
		c-3.6-1.3-6.9-3-10-5.3c-3.1-2.3-5.8-5.1-8.1-8.3c-2.3-3.2-4.1-6.9-5.4-10.9c-1.1-3.6-1.7-7.5-1.7-11.4c0-4.9,0.9-9.7,2.7-14.3
		c1.8-4.6,4.2-8.7,7.3-12.4c3.1-3.7,6.8-6.8,11.2-9.2c4.3-2.5,9.1-4.1,14.2-4.9c1.7-0.2,3.5-0.2,5.3-0.1c1.8,0.1,3.5,0.3,5.1,0.8
		c3.8,1,7.1,2.8,9.9,5.2c2.8,2.4,4.6,5.9,5.3,10.4v-0.1c0.7,4.2,0.1,8.3-1.7,12.3c-1.8,3.9-4.6,7-8.3,9.2c-1,0.6-2.1,1.1-3.2,1.6
		c-1.1,0.5-2.3,0.8-3.5,1c-3,0.4-6.2,0.8-9.4,1.1c-3.2,0.3-6.3,0.6-9.4,1l-7,0.8l0.3-0.1c-0.4,0.2-0.8,0.3-1,0.3s-0.5,0-0.8,0H123.7
		z M125.9,31.5l1.6,0.4c-0.3,0.5-0.6,1-0.6,1.3L125.9,31.5z M146.7,20.5c-1.7-0.2-3.5,0-5.3,0.5s-3.6,1.3-5.4,2.3
		c-1.8,1-3.4,2.3-4.9,3.8c-1.5,1.5-2.7,3-3.6,4.7c0.8,0.1,1.6,0.2,2.4,0.2c0.8,0,1.7,0.1,2.5,0.1c1.6,0,3.1-0.1,4.7-0.2
		c1.6-0.1,3.1-0.3,4.6-0.5c1.5-0.2,2.8-0.5,4-0.8c1.2-0.3,2.2-0.6,2.9-1c1.2-0.6,2.1-1.4,2.7-2.4c0.6-1,0.9-2.1,0.8-3.2
		c-0.2-0.9-0.8-1.6-1.8-2.3C149.4,21.1,148.2,20.7,146.7,20.5z"/>
	<path class="st0" d="M300.9,77.6c-0.1,1.9-0.5,3.6-1.4,4.9c-0.8,1.4-2.1,2.4-3.7,3c-1.7,0.6-3.4,0.6-5.1-0.1c-1.7-0.7-3-2-4-4
		c-0.8-1.6-1.6-3.4-2.4-5.6c-0.8-2.2-1.7-4.5-2.5-6.9l-0.3-0.8l0.1,0.5c-0.4-1-0.7-1.7-0.8-2.1c-0.1-0.3-0.2-0.6-0.3-0.9
		c0-0.1,0-0.2-0.1-0.3c0-0.1-0.1-0.2-0.1-0.3c-0.3-0.8-0.5-1.4-0.8-1.8c-0.3-0.4-0.8-0.6-1.5-0.6c-1.1,0-2.8,0.1-4.9,0.4
		c-2.8,0.3-5.5,0.5-8.2,0.7c-2.7,0.2-5.4,0.2-8.2,0.1c-0.7,0-1.1,0.2-1.4,0.5c-0.2,0.3-0.4,0.8-0.6,1.5l-3.4,11.6l-1.3,4h0.1
		l-0.9,2.7v-0.1l-0.4,1.2l-1.7,4c-2.1,3.5-5.1,4.8-9,4c-1.6-0.5-3-1.5-4-3c-1-1.5-1.5-3.2-1.4-5.2c0-1,0.1-2,0.3-2.7
		c0.2-0.8,0.3-1.5,0.5-2.2c0.5-1.6,1-3.3,1.5-4.9c0.5-1.6,0.9-3.2,1.4-4.9v0.1c0.2-0.9,0.4-1.7,0.6-2.5c0.3-0.8,0.5-1.6,0.6-2.4
		c1.8-6.4,3.7-12.8,5.6-19.2c1.9-6.4,4.2-13.2,7-20.4v0.1l1.7-4.3l5.1-11.6l0.4-0.9c0.2-0.4,0.4-0.8,0.6-1.2
		c0.3-0.4,0.4-0.8,0.4-1.2c0.9-2,2-3.7,3.4-5c1.4-1.3,3.2-2,5.6-1.9c2.2,0.1,4,0.7,5.5,1.9c1.5,1.2,2.7,2.8,3.4,4.7l2.1,5.3
		c1.2,2.5,2.3,5.1,3.3,7.8c1,2.7,2,5.4,2.9,8.2l11.2,33.7l3.5,10.9l-0.1-0.1c0.4,1,0.7,1.7,0.8,2.1c0.1,0.5,0.3,0.9,0.5,1.4
		l-0.1-0.1c0.1,0.4,0.1,0.8,0.1,1c0,0.2,0,0.4,0,0.6V77.6z M274.6,47.1c-0.5-1.6-1.1-3.2-1.6-4.8c-0.6-1.6-1.1-3.1-1.5-4.6l-0.9-2.9
		c-0.3-1-0.6-1.8-0.8-2.4c-0.2-0.6-0.3-1.3-0.5-2c-0.2-0.6-0.4-1.3-0.6-2.1c-0.3-0.7-0.6-1.6-1-2.7L262.9,39
		c-0.6,1.6-1.2,3.2-1.8,4.6c-0.6,1.4-1.1,3-1.6,4.7L274.6,47.1z M268.8,22.5c0,0.7-0.4,1.1-1.2,1.1c-0.8,0-1.3-0.2-1.4-0.7
		c-0.3-0.3-0.5-0.9-0.5-1.6c0-0.4,0.2-0.8,0.6-1c0.4-0.3,0.8-0.3,1.2,0l0.8,0.6c0.3,0.1,0.6,0.3,0.6,0.6c0.1,0.3,0.1,0.6,0,1H268.8z
		 M265.9,22l0.3,0.7v-0.1L265.9,22z"/>
	<path class="st0" d="M328.7,41c0.1,0.4,0.1,0.9,0.1,1.3c0,0.4,0.1,1,0.3,1.7c2.4-3,5.2-5.6,8.2-7.7c3-2.1,6.3-3.7,9.9-4.9
		c1.7-0.7,3.6-1.3,5.5-1.7c1.9-0.4,3.9-0.7,5.8-0.7c2.6,0.1,4.6,1.1,5.9,3c1.3,1.9,1.8,4,1.2,6.2c-0.5,1.6-1.3,2.8-2.5,3.6
		c-1.1,0.9-2.3,1.5-3.6,2l0.1-0.1c-0.8,0.3-1.6,0.6-2.3,0.8c-0.8,0.2-1.6,0.4-2.3,0.6l-4.4,1.6h0.1c-5.9,2.3-10,6.6-12.2,12.7
		c-2.9,7.5-4.2,15.3-3.9,23.3c0.2,3,0,5.8-0.5,8.2c-1,3.6-3.3,5.5-7.2,5.7c-1.7,0.1-3.2-0.3-4.5-1.1c-1.3-0.8-2.2-2.1-2.9-3.7
		c-0.8-2.1-1.3-4-1.6-5.7c-1.1-9.1-2.2-18.1-3.3-27.1c-1.1-9-2.1-18-3.2-27.1V32c-0.3-2.8-0.1-5.4,0.4-7.9c0.4-1.7,1.2-3.1,2.3-4.2
		c1.1-1,2.7-1.6,4.7-1.6c2,0,3.6,0.5,4.7,1.6c1.1,1.1,1.9,2.5,2.2,4.2c0.3,1.6,0.7,3.2,1,4.9c0.3,1.7,0.6,3.3,0.8,4.9l0.8,4.8
		L328.7,41z"/>
	<path class="st0" d="M394.1,48.2c0,2.8,0.5,5.4,1.6,7.7c1,2.4,2.4,4.4,4.2,6.2c1.8,1.7,3.8,3.1,6.2,4.2s4.8,1.6,7.4,1.6
		c0.8,0,1.6,0,2.5-0.1c0.9-0.1,1.8-0.3,2.7-0.5v0.1c1.7-0.6,3.4-1.2,4.9-1.8c1.6-0.6,3.2-1.3,4.8-2l2.9-1.3c1.5-0.6,2.9-0.9,4.4-0.9
		c2.6,0,4.6,1.1,6,3.2c1,1.6,1.3,3.5,0.9,5.7c-0.3,2.1-1.5,3.8-3.5,5.1c-8.5,5.5-16.9,8.3-25.4,8.3c-3.9,0-7.6-0.6-11.2-1.9
		c-3.6-1.3-6.9-3-10-5.3c-3.1-2.3-5.8-5.1-8.1-8.3c-2.3-3.2-4.1-6.9-5.4-10.9c-1.1-3.6-1.7-7.5-1.7-11.4c0-4.9,0.9-9.7,2.7-14.3
		c1.8-4.6,4.2-8.7,7.3-12.4c3.1-3.7,6.8-6.8,11.2-9.2c4.3-2.5,9.1-4.1,14.2-4.9c1.7-0.2,3.5-0.2,5.3-0.1c1.8,0.1,3.5,0.3,5.1,0.8
		c3.8,1,7.1,2.8,9.9,5.2c2.8,2.4,4.6,5.9,5.3,10.4v-0.1c0.7,4.2,0.1,8.3-1.7,12.3c-1.8,3.9-4.6,7-8.3,9.2c-1,0.6-2.1,1.1-3.2,1.6
		c-1.1,0.5-2.3,0.8-3.5,1c-3,0.4-6.2,0.8-9.4,1.1c-3.2,0.3-6.3,0.6-9.4,1l-7,0.8l0.3-0.1c-0.4,0.2-0.8,0.3-1,0.3s-0.5,0-0.8,0H394.1
		z M396.3,31.5l1.6,0.4c-0.3,0.5-0.6,1-0.7,1.3L396.3,31.5z M417.1,20.5c-1.7-0.2-3.5,0-5.3,0.5c-1.8,0.5-3.6,1.3-5.4,2.3
		c-1.8,1-3.4,2.3-4.9,3.8c-1.5,1.5-2.7,3-3.6,4.7c0.8,0.1,1.6,0.2,2.4,0.2c0.8,0,1.7,0.1,2.5,0.1c1.6,0,3.1-0.1,4.7-0.2
		c1.6-0.1,3.1-0.3,4.6-0.5c1.5-0.2,2.8-0.5,4-0.8c1.2-0.3,2.2-0.6,2.9-1c1.2-0.6,2.1-1.4,2.7-2.4c0.6-1,0.9-2.1,0.8-3.2
		c-0.2-0.9-0.8-1.6-1.8-2.3C419.8,21.1,418.6,20.7,417.1,20.5z"/>
</g>
</svg>
